<svg width="164" height="24" viewBox="0 0 164 24" fill="none" xmlns="http://www.w3.org/2000/svg">
<path d="M18.2401 0.616577C19.9658 0.616577 20.8289 0.616611 21.4716 0.987671C21.8925 1.23071 22.2422 1.58043 22.4853 2.00134C22.85 2.63301 22.8562 3.47789 22.8564 5.1449V5.32166C22.8562 6.98866 22.85 7.83354 22.4853 8.46521C22.2422 8.88617 21.8926 9.23581 21.4716 9.47888C20.8289 9.84996 19.9659 9.84998 18.2401 9.84998C13.6514 9.84998 9.93065 13.5708 9.93057 18.1595C9.93057 19.8851 9.9304 20.7483 9.55948 21.391C9.31647 21.8119 8.96666 22.1616 8.54581 22.4047C7.90305 22.7758 7.03924 22.7758 5.31339 22.7758C3.58779 22.7758 2.72465 22.7757 2.08194 22.4047C1.66105 22.1616 1.3113 21.8119 1.06827 21.391C0.697314 20.7483 0.697174 19.8852 0.697174 18.1595C0.697174 16.4338 0.697197 15.5708 1.06827 14.9281C1.31132 14.5071 1.66099 14.1575 2.08194 13.9144C2.72465 13.5434 3.58779 13.5433 5.31339 13.5433C9.90209 13.5433 13.6228 9.82242 13.623 5.23376C13.623 3.50789 13.623 2.6441 13.994 2.00134C14.2372 1.58034 14.5877 1.23075 15.0087 0.987671C15.6514 0.616801 16.5146 0.616577 18.2401 0.616577Z" fill="white"/>
<path d="M18.2401 13.5433C19.9659 13.5433 20.8289 13.5433 21.4716 13.9144C21.8926 14.1575 22.2422 14.5071 22.4853 14.9281C22.8563 15.5708 22.8564 16.4338 22.8564 18.1595C22.8564 19.8853 22.8563 20.7482 22.4853 21.391C22.2422 21.812 21.8925 22.1616 21.4716 22.4047C20.8289 22.7757 19.9659 22.7758 18.2401 22.7758C16.5143 22.7758 15.6515 22.7757 15.0087 22.4047C14.5876 22.1616 14.2372 21.8121 13.994 21.391C13.6232 20.7483 13.623 19.8851 13.623 18.1595C13.623 16.4339 13.6231 15.5708 13.994 14.9281C14.2372 14.507 14.5876 14.1575 15.0087 13.9144C15.6514 13.5434 16.5144 13.5433 18.2401 13.5433Z" fill="white"/>
<path d="M5.31339 0.616577C7.03926 0.616577 7.90304 0.616572 8.54581 0.987671C8.96672 1.23073 9.31641 1.58044 9.55948 2.00134C9.93058 2.6441 9.93057 3.50789 9.93057 5.23376C9.93057 6.95939 9.93055 7.82249 9.55948 8.46521C9.31643 8.88616 8.96673 9.23579 8.54581 9.47888C7.90304 9.84998 7.03926 9.84998 5.31339 9.84998C3.58779 9.84998 2.72465 9.84995 2.08194 9.47888C1.66099 9.2358 1.31134 8.88616 1.06827 8.46521C0.697196 7.82249 0.697174 6.95939 0.697174 5.23376C0.697174 3.50789 0.697169 2.6441 1.06827 2.00134C1.31135 1.58043 1.66101 1.23072 2.08194 0.987671C2.72465 0.616602 3.58779 0.616577 5.31339 0.616577Z" fill="white"/>
<path fill-rule="evenodd" clip-rule="evenodd" d="M52.8107 6.62398C53.8648 6.62403 54.8006 6.82196 55.6154 7.22066C56.445 7.6189 57.0884 8.17733 57.5402 8.89546C58.0096 9.5997 58.2433 10.4198 58.2433 11.3505V20.3418H55.3702V18.9941C55.2329 19.1326 55.0877 19.2647 54.9327 19.3886C54.4501 19.7878 53.8932 20.0941 53.2638 20.3095L53.2648 20.3105C52.6489 20.5269 51.9608 20.6337 51.2023 20.6337C50.2949 20.6337 49.4889 20.4771 48.7882 20.1601L48.7853 20.1582C48.1025 19.825 47.5656 19.3734 47.1788 18.8017L47.1779 18.8007C46.7898 18.2102 46.5978 17.5203 46.5978 16.7363C46.5978 16.0952 46.7189 15.5081 46.963 14.9775L47.0763 14.7509L47.2111 14.5341C47.5442 14.0391 48.0107 13.6173 48.6066 13.2685L48.8702 13.125C49.5044 12.8015 50.2679 12.5694 51.1583 12.4257L55.2482 11.75V11.3505C55.2482 10.7356 55.0197 10.2419 54.5607 9.85933L54.5568 9.8564C54.1132 9.45916 53.511 9.25391 52.7374 9.25386C52.0293 9.25386 51.4122 9.44215 50.882 9.81636L50.881 9.81734C50.3635 10.178 49.9796 10.6472 49.7286 11.2275L49.6779 11.3447L49.5636 11.288L47.1759 10.0937L47.214 9.99214C47.465 9.32267 47.8753 8.73786 48.4415 8.23824C49.0053 7.7246 49.6595 7.32691 50.4034 7.04585L50.6925 6.94722C51.3674 6.73195 52.0739 6.62398 52.8107 6.62398ZM51.7345 14.7832C51.0157 14.911 50.5071 15.1405 50.1906 15.457L50.1886 15.4589C49.874 15.7586 49.714 16.1481 49.714 16.6386C49.714 17.1079 49.8868 17.4885 50.2335 17.79C50.5974 18.0765 51.063 18.2236 51.6407 18.2236C52.3699 18.2236 52.9976 18.065 53.5284 17.7529L53.5304 17.7519L53.7306 17.6289C54.1198 17.3738 54.4372 17.0626 54.6837 16.6943L54.8009 16.5048C55.0984 15.9719 55.2481 15.3841 55.2482 14.7382V14.1689L51.7345 14.7832Z" fill="white"/>
<path fill-rule="evenodd" clip-rule="evenodd" d="M89.7052 6.62398C90.7101 6.62398 91.6129 6.7976 92.4103 7.14644L92.7023 7.28316C93.3706 7.61641 93.9453 8.05129 94.4249 8.58882L94.6232 8.81636C95.0725 9.358 95.4199 9.96929 95.6661 10.6494C95.9641 11.4274 96.1134 12.2549 96.1134 13.1298C96.1134 13.2369 96.1117 13.346 96.1075 13.457L96.089 13.7959C96.0723 14.0293 96.039 14.2476 95.9884 14.4501L95.965 14.5419H86.1886C86.2302 15.0417 86.3498 15.4945 86.548 15.9013L86.6779 16.1376C86.9951 16.6722 87.4081 17.096 87.9161 17.4121L88.1437 17.54C88.6835 17.8168 89.2847 17.955 89.9493 17.955C90.727 17.955 91.3773 17.7808 91.9064 17.4384L91.9073 17.4375L92.1095 17.3027C92.5664 16.9768 92.9318 16.5727 93.2072 16.0908L93.2638 15.9931L93.3654 16.0429L95.6075 17.1396L95.7091 17.1894L95.6652 17.2949C95.4311 17.8507 95.0825 18.3602 94.6212 18.8232L94.4171 19.0185C93.8686 19.5171 93.2054 19.9148 92.4298 20.2119H92.4279C91.6657 20.4935 90.831 20.6337 89.9249 20.6337C88.5899 20.6337 87.3986 20.3289 86.3546 19.7158L86.3527 19.7148C85.3274 19.0864 84.5251 18.2417 83.9464 17.1835C83.3676 16.1086 83.0783 14.9105 83.0782 13.5927C83.0782 12.2429 83.3665 11.0437 83.9464 9.99995L83.9474 9.99898L84.1798 9.61909C84.6631 8.88026 85.2586 8.26603 85.9659 7.7773L86.3292 7.54292C87.3241 6.92972 88.4506 6.62405 89.7052 6.62398ZM89.7052 9.18062C88.9961 9.18069 88.3697 9.36197 87.8224 9.72163L87.8204 9.72261C87.2742 10.0659 86.85 10.5662 86.5499 11.2294C86.4264 11.4959 86.3356 11.7896 86.2736 12.1074H92.9542C92.9266 11.7674 92.8466 11.4505 92.715 11.1562L92.713 11.1523C92.462 10.5408 92.0717 10.065 91.5411 9.72163L91.5372 9.71968C91.0238 9.3618 90.4146 9.18062 89.7052 9.18062Z" fill="white"/>
<path fill-rule="evenodd" clip-rule="evenodd" d="M110.623 6.62398C111.628 6.62398 112.531 6.7976 113.328 7.14644L113.62 7.28316C114.289 7.61658 114.864 8.05191 115.344 8.5898C115.89 9.18585 116.303 9.87258 116.584 10.6494L116.69 10.9433C116.918 11.6348 117.031 12.3642 117.031 13.1298C117.031 13.2369 117.029 13.346 117.025 13.457L117.006 13.7959C116.989 14.0293 116.956 14.2476 116.905 14.4501L116.883 14.5419H107.106C107.147 15.0418 107.268 15.4944 107.466 15.9013L107.596 16.1376C107.913 16.6722 108.326 17.096 108.834 17.4121L109.062 17.54C109.601 17.8167 110.203 17.955 110.867 17.955C111.645 17.955 112.295 17.7807 112.824 17.4384L112.825 17.4375L113.026 17.3027C113.484 16.9767 113.85 16.5729 114.125 16.0908L114.181 15.9931L114.283 16.0429L116.525 17.1396L116.627 17.1894L116.583 17.2949C116.316 17.93 115.899 18.5046 115.335 19.0185C114.787 19.5171 114.122 19.9148 113.347 20.2119C112.585 20.4935 111.749 20.6337 110.843 20.6337C109.508 20.6337 108.317 20.3288 107.273 19.7158L107.271 19.7148C106.245 19.0864 105.443 18.2417 104.864 17.1835C104.286 16.1086 103.996 14.9105 103.996 13.5927C103.996 12.2429 104.285 11.0437 104.864 9.99995L104.865 9.99898L105.098 9.61909C105.581 8.88026 106.177 8.26602 106.884 7.7773L107.247 7.54292C108.242 6.92975 109.369 6.62401 110.623 6.62398ZM110.623 9.18062C109.914 9.18065 109.288 9.36193 108.74 9.72163L108.738 9.72261C108.192 10.0659 107.768 10.5663 107.468 11.2294C107.344 11.496 107.253 11.7896 107.191 12.1074H113.872C113.845 11.7673 113.764 11.4506 113.632 11.1562L113.631 11.1523C113.38 10.5407 112.989 10.065 112.458 9.72163L112.455 9.71968C111.942 9.3618 111.333 9.18062 110.623 9.18062Z" fill="white"/>
<path fill-rule="evenodd" clip-rule="evenodd" d="M125.958 6.62398C127.276 6.62401 128.458 6.92904 129.501 7.54097C130.559 8.13616 131.395 8.96399 132.007 10.0214L132.121 10.2187C132.675 11.2161 132.95 12.35 132.95 13.6171C132.95 14.8842 132.675 16.0249 132.122 17.0361L132.008 17.2363C131.38 18.2936 130.536 19.1287 129.479 19.7402L129.478 19.7412C128.419 20.3368 127.245 20.6337 125.958 20.6337C124.671 20.6337 123.488 20.3287 122.413 19.7168C121.488 19.1816 120.726 18.4744 120.129 17.5976L119.884 17.2119C119.255 16.1519 118.941 14.9526 118.941 13.6171C118.941 12.2658 119.254 11.0657 119.884 10.0214L120.129 9.6357C120.641 8.88556 121.274 8.26538 122.027 7.77534L122.414 7.54097C123.473 6.92912 124.656 6.62398 125.958 6.62398ZM125.958 9.42476C125.215 9.42476 124.547 9.60617 123.949 9.96773L123.948 9.96675C123.366 10.3289 122.902 10.8259 122.555 11.458C122.225 12.0878 122.058 12.8066 122.058 13.6171C122.058 14.4285 122.225 15.1565 122.557 15.8037C122.904 16.4346 123.369 16.9294 123.95 17.291C124.548 17.6524 125.215 17.8339 125.958 17.8339C126.718 17.8339 127.386 17.6515 127.966 17.291L128.178 17.1494C128.66 16.8035 129.046 16.3553 129.336 15.8027L129.458 15.5556C129.724 14.972 129.858 14.3264 129.858 13.6171C129.858 12.8067 129.683 12.0878 129.337 11.458L129.336 11.455C129.005 10.8237 128.548 10.3286 127.966 9.96675C127.386 9.60622 126.718 9.42479 125.958 9.42476Z" fill="white"/>
<path fill-rule="evenodd" clip-rule="evenodd" d="M141.878 6.62398C143.196 6.62398 144.378 6.92912 145.421 7.54097C146.479 8.13621 147.316 8.96385 147.928 10.0214L148.042 10.2187C148.596 11.216 148.871 12.3501 148.871 13.6171C148.871 14.8842 148.595 16.0249 148.042 17.0361L147.928 17.2363C147.3 18.2936 146.456 19.1287 145.399 19.7402L145.398 19.7412C144.339 20.3367 143.165 20.6337 141.878 20.6337C140.591 20.6337 139.409 20.3285 138.334 19.7168L138.333 19.7158C137.408 19.1807 136.646 18.4742 136.05 17.5976L135.804 17.2119C135.175 16.152 134.861 14.9526 134.861 13.6171C134.861 12.2659 135.174 11.0657 135.804 10.0214L136.05 9.6357C136.561 8.88577 137.194 8.2653 137.947 7.77534L138.334 7.54097C139.393 6.92903 140.576 6.624 141.878 6.62398ZM141.878 9.42476C141.135 9.42479 140.467 9.60619 139.869 9.96773L139.868 9.96675C139.286 10.3288 138.822 10.826 138.475 11.458C138.145 12.0877 137.979 12.8067 137.979 13.6171C137.979 14.4285 138.145 15.1565 138.477 15.8037C138.824 16.4346 139.289 16.9294 139.87 17.291C140.468 17.6525 141.135 17.8339 141.878 17.8339C142.638 17.8339 143.306 17.6515 143.886 17.291L144.098 17.1494C144.58 16.8035 144.966 16.3553 145.256 15.8027L145.257 15.8017L145.379 15.5556C145.645 14.972 145.778 14.3263 145.778 13.6171C145.778 12.8067 145.603 12.0879 145.257 11.458L145.256 11.455C144.924 10.8237 144.468 10.3285 143.886 9.96675C143.306 9.60619 142.638 9.42476 141.878 9.42476Z" fill="white"/>
<path d="M34.4083 10.414L41.6886 1.94527H45.588L39.0421 9.61128L45.7208 20.1562L45.838 20.3418H42.1652L42.129 20.2861L36.9044 12.1123L34.4083 15.0253V20.3418H31.2911V1.94527H34.4083V10.414Z" fill="white"/>
<path fill-rule="evenodd" clip-rule="evenodd" d="M75.8898 6.62398C76.8182 6.62398 77.659 6.84038 78.4093 7.27339C79.1753 7.70635 79.7852 8.30676 80.2345 9.07222L80.3927 9.36519C80.7373 10.0601 80.9092 10.8362 80.9093 11.6914V20.3418H77.9142V12.4472C77.9142 11.7956 77.7944 11.2561 77.5626 10.8232L77.5607 10.8183C77.343 10.3673 77.0337 10.0285 76.6339 9.79781L76.629 9.79488C76.2452 9.5493 75.7894 9.42482 75.257 9.42476C74.7243 9.42476 74.2588 9.54991 73.8575 9.79683L73.8546 9.79781C73.504 10.0001 73.2173 10.2858 72.9943 10.6572L72.9025 10.8212C72.6695 11.2718 72.5509 11.8125 72.5509 12.4472V20.3418H69.5802V12.4472C69.5802 11.7956 69.4605 11.2561 69.2286 10.8232L69.2267 10.8183C69.009 10.3673 68.6998 10.0285 68.2999 9.79781L68.295 9.79488C67.9117 9.54964 67.448 9.42481 66.8986 9.42476C66.3659 9.42476 65.9004 9.54991 65.4991 9.79683L65.4962 9.79781C65.0966 10.0284 64.7789 10.3666 64.545 10.8173L64.546 10.8183C64.3282 11.2696 64.2169 11.8113 64.2169 12.4472V20.3418H61.2218V6.91695H64.0948V8.23824C64.3599 7.87374 64.6882 7.56904 65.0802 7.32515L65.3673 7.16011C66.0485 6.80229 66.8114 6.624 67.6534 6.62398C68.7313 6.62398 69.6893 6.91453 70.5226 7.49702L70.6788 7.6064C71.1226 7.92818 71.4823 8.30777 71.7589 8.74409C72.1055 8.19903 72.5341 7.75811 73.046 7.42378L73.047 7.42281L73.3654 7.23531C74.1195 6.82745 74.9618 6.62403 75.8898 6.62398Z" fill="white"/>
<path d="M101.555 20.3418H98.5597V1.65327H101.555V20.3418Z" fill="white"/>
<path fill-rule="evenodd" clip-rule="evenodd" d="M157.799 6.62398C158.791 6.62403 159.673 6.83963 160.441 7.27339L160.721 7.44331C161.355 7.8589 161.862 8.40272 162.241 9.0732L162.394 9.36714C162.725 10.0637 162.891 10.8474 162.891 11.7158V20.3418H159.92V12.4472C159.92 11.7956 159.8 11.2561 159.568 10.8232L159.568 10.8212C159.335 10.3712 159.003 10.0316 158.57 9.79976L158.566 9.79781C158.148 9.55017 157.666 9.42477 157.116 9.42476C156.567 9.42476 156.076 9.55016 155.641 9.79878C155.276 10.0013 154.981 10.2868 154.757 10.6572L154.665 10.8212C154.432 11.2718 154.313 11.8124 154.313 12.4472V20.3418H151.318V6.91695H154.191V8.24702C154.416 7.94885 154.679 7.68925 154.984 7.47261L155.251 7.29878C155.987 6.8477 156.838 6.62398 157.799 6.62398Z" fill="white"/>
</svg>
