<svg xmlns="http://www.w3.org/2000/svg" width="36" height="36" viewBox="0 0 36 36"><path fill="#DAE995" d="M0 8a8 8 0 0 1 8-8h20a8 8 0 0 1 8 8v20a8 8 0 0 1-8 8H8a8 8 0 0 1-8-8z" stroke-width="1"/><path fill="#1D342F" d="M26.227 6.725c.497 0 .962.132 1.365.36l.019.011q.053.03.105.064a2 2 0 0 1 .22.156 4 4 0 0 1 .17.145q.08.075.154.155l.067.074a5 5 0 0 1 .14.178q.062.086.118.177l.04.064.008.016c.23.404.363.87.363 1.369v3.693c0 .502-.134.97-.366 1.375l-.005.01q-.02.033-.04.064a3 3 0 0 1-.107.164l-.081.107-.07.084q-.034.039-.067.074a3 3 0 0 1-.176.174l-.042.039q-.053.046-.108.089l-.072.053a3 3 0 0 1-.179.122q-.035.023-.072.045l-.019.01a2.76 2.76 0 0 1-1.365.361H24.38a8.31 8.31 0 0 0-8.31 8.31v1.846c0 .498-.133.963-.361 1.365l-.01.02q-.022.036-.045.071a3 3 0 0 1-.176.253 2.5 2.5 0 0 1-.3.324l-.074.068a2.6 2.6 0 0 1-.332.244q-.043.028-.086.054l-.018.008c-.404.23-.87.363-1.368.363H9.606a2.76 2.76 0 0 1-1.384-.371l-.065-.04a3 3 0 0 1-.354-.258l-.074-.068a3 3 0 0 1-.156-.154l-.066-.074a2 2 0 0 1-.133-.169 3 3 0 0 1-.166-.251l-.011-.02a2.76 2.76 0 0 1-.36-1.365v-3.693c0-.498.132-.963.36-1.366l.011-.019a3 3 0 0 1 .173-.262l.043-.057q.04-.052.082-.102a4 4 0 0 1 .223-.229l.064-.059q.052-.045.105-.087l.072-.053q.105-.077.218-.145l.034-.02.063-.038a2.8 2.8 0 0 1 1.321-.333h1.848a8.31 8.31 0 0 0 8.31-8.31V9.494c0-.613.2-1.178.536-1.637q.025-.035.053-.071.042-.054.086-.105l.059-.064q.066-.072.138-.139a2 2 0 0 1 .193-.166l.069-.052q.072-.052.145-.1.053-.033.105-.064l.019-.011c.403-.229.869-.36 1.366-.36z" stroke-width="1"/><path fill="#1D342F" d="M24.38 19.651c1.726 0 2.589 0 3.231.371.421.244.771.593 1.014 1.014.371.643.371 1.506.371 3.232 0 1.725 0 2.588-.371 3.231a2.77 2.77 0 0 1-1.014 1.014c-.642.371-1.505.371-3.231.371s-2.589 0-3.232-.371a2.77 2.77 0 0 1-1.013-1.014c-.371-.643-.371-1.506-.371-3.231 0-1.726 0-2.589.371-3.232.243-.421.592-.77 1.013-1.014.643-.371 1.506-.371 3.232-.371M11.454 6.725c1.726 0 2.589 0 3.232.371.421.243.77.592 1.013 1.013.371.643.371 1.506.371 3.232 0 1.725 0 2.589-.371 3.231a2.77 2.77 0 0 1-1.013 1.015c-.643.371-1.506.371-3.232.371s-2.59 0-3.232-.371a2.8 2.8 0 0 1-1.014-1.015c-.371-.642-.371-1.506-.371-3.231 0-1.726 0-2.589.371-3.232.243-.421.593-.77 1.014-1.013.642-.371 1.506-.371 3.232-.371" stroke-width="1"/></svg>
